<mxfile host="Electron" modified="2024-08-22T15:38:37.394Z" agent="Mozilla/5.0 (Windows NT 10.0; Win64; x64) AppleWebKit/537.36 (KHTML, like Gecko) draw.io/22.1.2 Chrome/114.0.5735.289 Electron/25.9.4 Safari/537.36" etag="5eYsdZDDm66g2L7EGmA-" version="22.1.2" type="device">
  <diagram name="Page-1" id="1lEP1IIEI1IEOt1SSv0U">
    <mxGraphModel dx="797" dy="491" grid="1" gridSize="10" guides="1" tooltips="1" connect="1" arrows="1" fold="1" page="1" pageScale="1" pageWidth="1920" pageHeight="1200" math="0" shadow="0">
      <root>
        <mxCell id="0" />
        <mxCell id="1" parent="0" />
        <mxCell id="OcagP3S-srcPaDNstMSJ-24" style="edgeStyle=orthogonalEdgeStyle;rounded=0;orthogonalLoop=1;jettySize=auto;html=1;entryX=0.5;entryY=0;entryDx=0;entryDy=0;fontFamily=Helvetica;fontSize=12;fontColor=default;" edge="1" parent="1" source="OcagP3S-srcPaDNstMSJ-18" target="OcagP3S-srcPaDNstMSJ-19">
          <mxGeometry relative="1" as="geometry" />
        </mxCell>
        <mxCell id="OcagP3S-srcPaDNstMSJ-18" value="Panel2D" style="rounded=1;whiteSpace=wrap;html=1;strokeColor=default;align=center;verticalAlign=middle;fontFamily=Helvetica;fontSize=12;fontColor=default;fillColor=default;" vertex="1" parent="1">
          <mxGeometry x="650" y="350" width="120" height="60" as="geometry" />
        </mxCell>
        <mxCell id="OcagP3S-srcPaDNstMSJ-25" style="edgeStyle=orthogonalEdgeStyle;rounded=0;orthogonalLoop=1;jettySize=auto;html=1;entryX=0.5;entryY=0;entryDx=0;entryDy=0;fontFamily=Helvetica;fontSize=12;fontColor=default;" edge="1" parent="1" source="OcagP3S-srcPaDNstMSJ-19" target="OcagP3S-srcPaDNstMSJ-20">
          <mxGeometry relative="1" as="geometry">
            <Array as="points">
              <mxPoint x="710" y="570" />
              <mxPoint x="570" y="570" />
            </Array>
          </mxGeometry>
        </mxCell>
        <mxCell id="OcagP3S-srcPaDNstMSJ-26" style="edgeStyle=orthogonalEdgeStyle;rounded=0;orthogonalLoop=1;jettySize=auto;html=1;entryX=0.5;entryY=0;entryDx=0;entryDy=0;fontFamily=Helvetica;fontSize=12;fontColor=default;" edge="1" parent="1" source="OcagP3S-srcPaDNstMSJ-19" target="OcagP3S-srcPaDNstMSJ-21">
          <mxGeometry relative="1" as="geometry" />
        </mxCell>
        <mxCell id="OcagP3S-srcPaDNstMSJ-19" value="Mesh Component" style="rounded=1;whiteSpace=wrap;html=1;strokeColor=default;align=center;verticalAlign=middle;fontFamily=Helvetica;fontSize=12;fontColor=default;fillColor=default;" vertex="1" parent="1">
          <mxGeometry x="650" y="490" width="120" height="60" as="geometry" />
        </mxCell>
        <mxCell id="OcagP3S-srcPaDNstMSJ-27" style="edgeStyle=orthogonalEdgeStyle;rounded=0;orthogonalLoop=1;jettySize=auto;html=1;entryX=0.5;entryY=0;entryDx=0;entryDy=0;fontFamily=Helvetica;fontSize=12;fontColor=default;" edge="1" parent="1" source="OcagP3S-srcPaDNstMSJ-20" target="OcagP3S-srcPaDNstMSJ-22">
          <mxGeometry relative="1" as="geometry" />
        </mxCell>
        <mxCell id="OcagP3S-srcPaDNstMSJ-20" value="Texture2D" style="rounded=1;whiteSpace=wrap;html=1;strokeColor=default;align=center;verticalAlign=middle;fontFamily=Helvetica;fontSize=12;fontColor=default;fillColor=default;" vertex="1" parent="1">
          <mxGeometry x="510" y="600" width="120" height="60" as="geometry" />
        </mxCell>
        <mxCell id="OcagP3S-srcPaDNstMSJ-30" style="edgeStyle=orthogonalEdgeStyle;rounded=0;orthogonalLoop=1;jettySize=auto;html=1;fontFamily=Helvetica;fontSize=12;fontColor=default;entryX=0.768;entryY=0.011;entryDx=0;entryDy=0;entryPerimeter=0;" edge="1" parent="1" source="OcagP3S-srcPaDNstMSJ-21" target="OcagP3S-srcPaDNstMSJ-23">
          <mxGeometry relative="1" as="geometry">
            <Array as="points" />
          </mxGeometry>
        </mxCell>
        <mxCell id="OcagP3S-srcPaDNstMSJ-21" value="ID3D12Resource" style="rounded=1;whiteSpace=wrap;html=1;strokeColor=default;align=center;verticalAlign=middle;fontFamily=Helvetica;fontSize=12;fontColor=default;fillColor=default;" vertex="1" parent="1">
          <mxGeometry x="650" y="720" width="120" height="60" as="geometry" />
        </mxCell>
        <mxCell id="OcagP3S-srcPaDNstMSJ-22" value="ID3D12Resource" style="rounded=1;whiteSpace=wrap;html=1;strokeColor=default;align=center;verticalAlign=middle;fontFamily=Helvetica;fontSize=12;fontColor=default;fillColor=default;" vertex="1" parent="1">
          <mxGeometry x="510" y="720" width="120" height="60" as="geometry" />
        </mxCell>
        <mxCell id="OcagP3S-srcPaDNstMSJ-23" value="Shader Inputs" style="rounded=1;whiteSpace=wrap;html=1;strokeColor=default;align=center;verticalAlign=middle;fontFamily=Helvetica;fontSize=12;fontColor=default;fillColor=default;" vertex="1" parent="1">
          <mxGeometry x="510" y="840" width="260" height="60" as="geometry" />
        </mxCell>
        <mxCell id="OcagP3S-srcPaDNstMSJ-29" style="edgeStyle=orthogonalEdgeStyle;rounded=0;orthogonalLoop=1;jettySize=auto;html=1;entryX=0.227;entryY=-0.033;entryDx=0;entryDy=0;entryPerimeter=0;fontFamily=Helvetica;fontSize=12;fontColor=default;" edge="1" parent="1" source="OcagP3S-srcPaDNstMSJ-22" target="OcagP3S-srcPaDNstMSJ-23">
          <mxGeometry relative="1" as="geometry" />
        </mxCell>
        <mxCell id="OcagP3S-srcPaDNstMSJ-31" value="" style="whiteSpace=wrap;html=1;rounded=1;strokeColor=default;align=center;verticalAlign=middle;fontFamily=Helvetica;fontSize=12;fontColor=default;fillColor=default;" vertex="1" parent="1">
          <mxGeometry x="1150" y="660" width="120" height="60" as="geometry" />
        </mxCell>
      </root>
    </mxGraphModel>
  </diagram>
</mxfile>
